<?xml version="1.0" encoding="utf-8"?>
<!-- Generator: Adobe Illustrator 25.2.1, SVG Export Plug-In . SVG Version: 6.00 Build 0)  -->
<svg version="1.1" xmlns="http://www.w3.org/2000/svg" xmlns:xlink="http://www.w3.org/1999/xlink" x="0px" y="0px"
	 viewBox="0 0 200 200" style="enable-background:new 0 0 200 200;" xml:space="preserve">
<style type="text/css">
	.st0{fill:#3A3A3A;}
	.st1{fill:#FFFCC7;}
</style>
<g id="Camada_1">
	<g>
		<circle class="st0" cx="100" cy="100" r="100"/>
	</g>
</g>
<g id="Camada_2">
	<g>
		<path class="st1" d="M64.31,82.7c0.35-18.02,14.24-32.88,32.21-34.39c16.99-1.42,32.24,8.86,37.11,25.02
			c2.43,8.05,1.51,15.81-1.89,23.41c-3.45,7.72-7.96,14.81-12.99,21.55c-5.28,7.08-10.78,14-16.17,21c-0.7,0.91-1.38,1.84-2.08,2.75
			c-0.61,0.78-0.99,0.79-1.6,0.01c-5.29-6.81-10.6-13.6-15.83-20.45c-4.89-6.4-9.45-13.03-13.17-20.19c-2.5-4.8-4.6-9.74-5.31-15.17
			C64.43,85.07,64.4,83.89,64.31,82.7z M99.73,72.92c-6.65-0.04-12.16,5.34-12.21,11.93c-0.06,6.73,5.38,12.2,12.14,12.22
			c6.65,0.02,12.18-5.36,12.24-11.93C111.96,78.44,106.5,72.96,99.73,72.92z"/>
		<path class="st1" d="M99.98,151.67c-7.01-0.14-13.55-0.75-19.68-3.44c-1.87-0.82-3.7-1.98-5.21-3.35
			c-2.6-2.36-2.48-5.46-0.01-7.97c1.67-1.7,3.73-2.83,5.94-3.6c2.09-0.74,4.26-1.25,6.39-1.89c0.76-0.23,1.24-0.03,1.73,0.61
			c2.82,3.68,5.68,7.32,8.52,10.98c1.27,1.63,2.81,1.63,4.08-0.01c2.84-3.66,5.7-7.3,8.53-10.98c0.45-0.58,0.86-0.8,1.62-0.63
			c3.31,0.75,6.58,1.61,9.5,3.37c1.21,0.73,2.39,1.63,3.34,2.67c1.98,2.16,1.89,4.91-0.05,7.11c-1.51,1.72-3.44,2.81-5.5,3.69
			c-4.61,1.98-9.49,2.8-14.45,3.2C103.03,151.57,101.3,151.6,99.98,151.67z"/>
	</g>
</g>
</svg>
